<svg id="Layer_1" data-name="Layer 1" xmlns="http://www.w3.org/2000/svg" viewBox="0 0 500.06 402.96"><defs><style>.cls-1{fill:aqua;}</style></defs><path class="cls-1" d="M652.79,340.41H633.27a7,7,0,0,0,0,13.95h19.52a7,7,0,1,0,0-13.95Z" transform="translate(-250.16 -298.27)"/><path class="cls-1" d="M594.57,340.41H575.05a7,7,0,0,0,0,13.95h19.52a7,7,0,1,0,0-13.95Z" transform="translate(-250.16 -298.27)"/><path class="cls-1" d="M711,340.41H691.49a7,7,0,0,0,0,13.95H711a7,7,0,1,0,0-13.95Z" transform="translate(-250.16 -298.27)"/><path class="cls-1" d="M264.1,381.84V326.16a13.75,13.75,0,0,1,1.1-5.43,14,14,0,0,1,5.06-6.14,13.81,13.81,0,0,1,7.79-2.37H722.33a13.94,13.94,0,0,1,13.94,13.94v55.68ZM737.93,303a27.83,27.83,0,0,0-15.6-4.77H278.05a27.87,27.87,0,0,0-27.89,27.89V673.34a27.89,27.89,0,0,0,27.89,27.89h33.07a7,7,0,0,0,0-13.94H278.05a13.94,13.94,0,0,1-13.95-13.94V395.78H736.27V673.34a13.92,13.92,0,0,1-13.94,13.94h-337a7,7,0,0,0,0,14h337a27.89,27.89,0,0,0,27.89-27.89V389.17h0v-63A27.88,27.88,0,0,0,737.93,303Z" transform="translate(-250.16 -298.27)"/><polygon class="cls-1" points="247.56 308.25 247.56 308.25 247.56 308.26 247.56 308.25 247.56 308.25"/><path class="cls-1" d="M530,537.25a38,38,0,0,1,9.23-24.55h0a38,38,0,0,1,28.89-13.24,37.89,37.89,0,0,1,14.84,3,38.13,38.13,0,0,1,6.47,66.75,38.09,38.09,0,0,1-50.2-6.74l0,0h0a39.26,39.26,0,0,1-4.62-7.2,43.44,43.44,0,0,1-3.09-7.79,37.1,37.1,0,0,1-1.49-9.58v-.6Zm-51.64-.07v.73a38.16,38.16,0,0,1-53,34.81A38.13,38.13,0,0,1,418.93,506a38.1,38.1,0,0,1,50.2,6.73,58.36,58.36,0,0,1,4.65,6.67,44.23,44.23,0,0,1,3.09,6.06,21.16,21.16,0,0,1,1.56,5.76c0,.26.07.51.12.76-.11,1.73-.17,3.48-.18,5.24Zm-124.53,11a5.87,5.87,0,0,1-4.86-5.77v-9.71a5.87,5.87,0,0,1,4.86-5.77l6.92-1.2a7,7,0,0,0,5.61-5.3,75.1,75.1,0,0,1,9.53-23,7,7,0,0,0-.21-7.71L371.63,484a5.91,5.91,0,0,1-1.07-3.37,5.82,5.82,0,0,1,.44-2.22,5.58,5.58,0,0,1,1.28-1.92l6.86-6.87a6,6,0,0,1,1.93-1.28,5.82,5.82,0,0,1,2.22-.44,5.91,5.91,0,0,1,3.37,1.07h0l5.76,4.06a7,7,0,0,0,7.71.21,75.6,75.6,0,0,1,23-9.53,7,7,0,0,0,5.3-5.6l1.2-6.93a5.87,5.87,0,0,1,5.77-4.86h9.71a5.87,5.87,0,0,1,5.77,4.86l1.2,6.93a7,7,0,0,0,5.3,5.6,75.69,75.69,0,0,1,31.41,15.63l.14.12h0c.1.08,2.77,2.2,5.27,4.45l1.2,1.12a89.31,89.31,0,0,0-11.52,21.56c-.21.58-.42,1.15-.62,1.73-1.92-2.78-3.38-4.53-3.49-4.66l-.05-.06a52.08,52.08,0,0,0-82.64,4.86,52.1,52.1,0,0,0,65.25,76.3,52.39,52.39,0,0,0,17.39-13.19h0A51.8,51.8,0,0,0,492.31,538v-.78a75.42,75.42,0,0,1,17.26-47.79h0a75.22,75.22,0,0,1,10-10.09h0A75.45,75.45,0,0,1,551,463.71a7,7,0,0,0,5.3-5.6l1.2-6.93a5.87,5.87,0,0,1,5.77-4.86H573a5.87,5.87,0,0,1,5.77,4.86l1.2,6.93a7,7,0,0,0,5.3,5.6,75.6,75.6,0,0,1,23,9.53A7,7,0,0,0,616,473l5.76-4.06a5.82,5.82,0,0,1,3.37-1.06,5.63,5.63,0,0,1,2.22.43,5.72,5.72,0,0,1,1.92,1.28l6.87,6.87a5.58,5.58,0,0,1,1.28,1.92,5.83,5.83,0,0,1-.63,5.59l-4.06,5.76a7,7,0,0,0-.21,7.71,75.35,75.35,0,0,1,9.53,23,7,7,0,0,0,5.6,5.3l6.93,1.2a5.87,5.87,0,0,1,4.86,5.77v9.71a5.87,5.87,0,0,1-4.86,5.77l-6.93,1.2a7,7,0,0,0-5.6,5.3,75.54,75.54,0,0,1-9.53,23,7,7,0,0,0,.21,7.71l4.06,5.77a5.81,5.81,0,0,1,.63,5.58,5.76,5.76,0,0,1-1.28,1.93l-6.87,6.86a5.75,5.75,0,0,1-1.92,1.29,6,6,0,0,1-2.22.43,5.83,5.83,0,0,1-3.37-1.07L616,602.13a7,7,0,0,0-7.71-.21,75.1,75.1,0,0,1-23,9.53,7,7,0,0,0-5.3,5.61l-1.2,6.93a5.87,5.87,0,0,1-5.77,4.85h-9.71a5.87,5.87,0,0,1-5.77-4.85l-1.2-6.94a7,7,0,0,0-5.3-5.6A75.35,75.35,0,0,1,519.82,596l-6.41-6.44a89.46,89.46,0,0,0,11.1-21c.23-.6.44-1.21.65-1.81a42.37,42.37,0,0,0,3.52,4.8h0l.05,0h0a52.13,52.13,0,1,0-12.67-34.47v.78a75.33,75.33,0,0,1-17.25,47.8h0a76.35,76.35,0,0,1-10,10.08h0a75.45,75.45,0,0,1-31.41,15.63,7,7,0,0,0-5.3,5.6l-1.2,6.94a5.87,5.87,0,0,1-5.77,4.85h-9.71a5.87,5.87,0,0,1-5.77-4.85l-1.2-6.93a7,7,0,0,0-5.3-5.61,75.1,75.1,0,0,1-23-9.53,7,7,0,0,0-7.71.21l-5.76,4.06a5.83,5.83,0,0,1-3.37,1.07,6,6,0,0,1-2.22-.43,5.89,5.89,0,0,1-1.93-1.29l-6.86-6.86a5.61,5.61,0,0,1-1.28-1.93,5.81,5.81,0,0,1,.63-5.58l4.06-5.77a7,7,0,0,0,.21-7.71,75,75,0,0,1-9.53-23,7,7,0,0,0-5.6-5.3l-6.93-1.2Zm145-67.64Zm-142.19,114a19.76,19.76,0,0,0,5.8,14l6.86,6.86a19.81,19.81,0,0,0,25.41,2.19l2.1-1.48a89,89,0,0,0,18.65,7.74l.44,2.52a19.8,19.8,0,0,0,19.51,16.41h9.71a19.8,19.8,0,0,0,19.51-16.41l.44-2.51a89.75,89.75,0,0,0,32.67-17.33c2.34-2,4.58-4,6.71-6.23l5.75,5.79a4.9,4.9,0,0,0,.48.44,89.75,89.75,0,0,0,32.67,17.33l.44,2.51a19.8,19.8,0,0,0,19.51,16.41H573a19.8,19.8,0,0,0,19.51-16.41l.43-2.52a89.3,89.3,0,0,0,18.66-7.74l2.1,1.48a19.8,19.8,0,0,0,25.41-2.19l6.86-6.86a19.8,19.8,0,0,0,2.19-25.4l-1.48-2.1a89.3,89.3,0,0,0,7.74-18.66l2.52-.44a19.78,19.78,0,0,0,16.41-19.5v-9.71a19.8,19.8,0,0,0-16.41-19.51l-2.52-.44a89,89,0,0,0-7.74-18.65l1.48-2.1a19.77,19.77,0,0,0-2.19-25.4l-6.86-6.87a19.81,19.81,0,0,0-25.41-2.19l-2.1,1.48a89.61,89.61,0,0,0-18.66-7.74l-.43-2.51A19.8,19.8,0,0,0,573,432.38h-9.71a19.8,19.8,0,0,0-19.51,16.42l-.44,2.51a89.57,89.57,0,0,0-32.67,17.32h0c-2.17,1.81-4.26,3.72-6.25,5.73-1.64-1.52-3.32-2.95-4.61-4s-2.18-1.78-2.22-1.81h0A89.49,89.49,0,0,0,465,451.31l-.43-2.51a19.8,19.8,0,0,0-19.51-16.42h-9.71a19.8,19.8,0,0,0-19.51,16.42l-.44,2.51a89.53,89.53,0,0,0-18.65,7.74l-2.1-1.48h0a19.8,19.8,0,0,0-25.41,2.19l-6.86,6.87a19.8,19.8,0,0,0-2.19,25.4l1.48,2.1A89,89,0,0,0,354,512.78l-2.52.44A19.82,19.82,0,0,0,335,532.73v9.71a19.8,19.8,0,0,0,16.42,19.5l2.52.44A89.3,89.3,0,0,0,361.71,581l-1.48,2.1a19.7,19.7,0,0,0-3.61,11.39Z" transform="translate(-250.16 -298.27)"/><polygon class="cls-1" points="278.52 205.33 278.52 205.33 278.52 205.33 278.52 205.33 278.52 205.33"/><path class="cls-1" d="M340.49,694.25a7,7,0,1,0,7-7,7,7,0,0,0-7,7Z" transform="translate(-250.16 -298.27)"/></svg>