<svg id="Layer_1" data-name="Layer 1" xmlns="http://www.w3.org/2000/svg" viewBox="0 0 900 725.81"><defs><style>.cls-1{fill:aqua;}</style></defs><path class="cls-1" d="M783.1,212.31H748.2a12.84,12.84,0,0,0-12.69,9.82,12.62,12.62,0,0,0,12.31,15.38h34.9a12.83,12.83,0,0,0,12.68-9.82,12.61,12.61,0,0,0-12.3-15.38Z" transform="translate(-58 -136.71)"/><path class="cls-1" d="M678.3,212.31H643.4a12.83,12.83,0,0,0-12.68,9.82A12.62,12.62,0,0,0,643,237.51h34.9a12.84,12.84,0,0,0,12.69-9.82,12.62,12.62,0,0,0-12.31-15.38Z" transform="translate(-58 -136.71)"/><path class="cls-1" d="M887.9,212.31H853a12.83,12.83,0,0,0-12.69,9.82,12.62,12.62,0,0,0,12.3,15.38h34.91a12.83,12.83,0,0,0,12.68-9.82,12.61,12.61,0,0,0-12.3-15.38Z" transform="translate(-58 -136.71)"/><path class="cls-1" d="M83.2,287.91V187.14a25.24,25.24,0,0,1,11.07-20.93,24.78,24.78,0,0,1,14-4.3H907.71a24.63,24.63,0,0,1,9.76,2,25.24,25.24,0,0,1,15.33,23.25V287.91ZM935.88,145.29a50,50,0,0,0-28.08-8.58H108.2A50.18,50.18,0,0,0,58,186.91V812.32a56.12,56.12,0,0,0,4.23,19.55,50.32,50.32,0,0,0,18.18,22.07,46.79,46.79,0,0,0,28.08,8.17H168A12,12,0,0,0,180.56,850c0-6.93-12.55-11.26-12.55-11.26H108.29a25,25,0,0,1-9.76-2,25.26,25.26,0,0,1-11-9.13,25,25,0,0,1-4.28-14V313.11H932.8v498.6a25.2,25.2,0,0,1-25.2,25.2H299a12.83,12.83,0,0,0-12.68,9.82,12.62,12.62,0,0,0,12.3,15.38H907.8a50.2,50.2,0,0,0,50.2-50.2V300.34h0V186.91a50.16,50.16,0,0,0-22.12-41.62Z" transform="translate(-58 -136.71)"/><polygon class="cls-1" points="445.89 555.34 445.89 555.35 445.89 555.35 445.89 555.34 445.89 555.34"/><path class="cls-1" d="M562,567.37a68.16,68.16,0,0,1,16.62-44.19h0a68.69,68.69,0,1,1,0,89.57l0,0h0a72.23,72.23,0,0,1-8.32-13,79.63,79.63,0,0,1-5.56-14A67.27,67.27,0,0,1,562,568.45v-1.08Zm-93.6-.15v1.33a68.67,68.67,0,1,1-16.63-45.4,108.34,108.34,0,0,1,8.38,12,82.26,82.26,0,0,1,5.55,10.92,38,38,0,0,1,2.81,10.37c.05.46.12.92.21,1.36-.19,3.12-.31,6.26-.32,9.42ZM244.94,587a10.55,10.55,0,0,1-8.74-10.41V559.05a10.53,10.53,0,0,1,8.74-10.41l12.46-2.17a12.47,12.47,0,0,0,10.05-9.42,136.09,136.09,0,0,1,17.26-41.76,12.48,12.48,0,0,0-.43-13.76L277,471.1a10.61,10.61,0,0,1,1.16-13.56l12.36-12.39A10.52,10.52,0,0,1,304,444h0l10.35,7.31a12.48,12.48,0,0,0,13.82.44,135.32,135.32,0,0,1,41.56-17.28,12.47,12.47,0,0,0,9.4-10.06l2.17-12.53a10.56,10.56,0,0,1,3.6-6.28,10.43,10.43,0,0,1,6.78-2.48h17a10.43,10.43,0,0,1,6.78,2.48,10.56,10.56,0,0,1,3.6,6.28l2.14,12.4a12.63,12.63,0,0,0,9.51,10.21,135.71,135.71,0,0,1,56.56,28.22l.24.2h0c.18.14,5,4,9.47,8,.74.67,1.47,1.34,2.17,2a161.49,161.49,0,0,0-20.74,38.92q-.57,1.54-1.11,3.12c-3.44-5-6.09-8.18-6.28-8.42l-.09-.11a93.39,93.39,0,0,0-71-32.64A94.08,94.08,0,0,0,313.6,604.39a94.33,94.33,0,0,0,33.94,41.34A93.59,93.59,0,0,0,439.63,653a94.07,94.07,0,0,0,31.29-23.81h0a93.87,93.87,0,0,0,22.68-60.55v-1.41a136.32,136.32,0,0,1,31-86.27h0a136.74,136.74,0,0,1,18-18.22h0a135.81,135.81,0,0,1,56.56-28.21,12.65,12.65,0,0,0,9.51-10.21l2.14-12.4a10.56,10.56,0,0,1,3.6-6.28,10.43,10.43,0,0,1,6.78-2.48h17.47a10.39,10.39,0,0,1,6.78,2.48,10.51,10.51,0,0,1,3.6,6.28l2.17,12.53a12.44,12.44,0,0,0,9.39,10.05,135.54,135.54,0,0,1,41.57,17.29,12.48,12.48,0,0,0,13.82-.44L726.42,444a10.51,10.51,0,0,1,13.51,1.16l12.36,12.39a10.45,10.45,0,0,1,2.3,3.48,10.61,10.61,0,0,1-1.14,10.08l-7.33,10.43a12.48,12.48,0,0,0-.43,13.76A136.09,136.09,0,0,1,763,537.05a12.47,12.47,0,0,0,10,9.42l12.47,2.17a10.53,10.53,0,0,1,8.73,10.41v17.52A10.55,10.55,0,0,1,785.47,587L773,589.15a12.47,12.47,0,0,0-10,9.41,136.09,136.09,0,0,1-17.26,41.76,12.48,12.48,0,0,0,.43,13.76l7.33,10.44a10.59,10.59,0,0,1,1.14,10.07,10.28,10.28,0,0,1-2.31,3.48l-12.35,12.39a10.43,10.43,0,0,1-3.46,2.32,10.74,10.74,0,0,1-4,.78,10.43,10.43,0,0,1-6.06-1.93l-10.35-7.31a12.48,12.48,0,0,0-13.82-.44,135.27,135.27,0,0,1-41.57,17.28,12.44,12.44,0,0,0-9.39,10.06l-2.17,12.53a10.55,10.55,0,0,1-10.38,8.76h-17a10.55,10.55,0,0,1-10.38-8.76l-2.15-12.47a12.55,12.55,0,0,0-9.44-10.13,135.86,135.86,0,0,1-56.22-27.9L532,661.61a161.74,161.74,0,0,0,20-37.87c.4-1.09.79-2.18,1.16-3.28a80.52,80.52,0,0,0,6.33,8.68h0l.08.1h0A94,94,0,0,0,590.77,653a93.67,93.67,0,0,0,76.17,1.44A94,94,0,1,0,536.8,567v1.41a136.33,136.33,0,0,1-31,86.26l0,0h0a138.2,138.2,0,0,1-18,18.18h0a135.73,135.73,0,0,1-56.56,28.23,12.64,12.64,0,0,0-9.51,10.2l-2.14,12.41a10.55,10.55,0,0,1-10.38,8.76H391.66a10.55,10.55,0,0,1-10.38-8.76l-2.17-12.53a12.45,12.45,0,0,0-9.4-10.06,135.16,135.16,0,0,1-41.55-17.28,12.5,12.5,0,0,0-13.83.44L304,691.63a10.43,10.43,0,0,1-6.06,1.93,10.65,10.65,0,0,1-4-.78,10.37,10.37,0,0,1-3.47-2.32l-12.35-12.39a10.44,10.44,0,0,1-2.31-3.47A10.61,10.61,0,0,1,277,664.52l7.33-10.44a12.5,12.5,0,0,0,.44-13.76,135.87,135.87,0,0,1-17.27-41.76,12.47,12.47,0,0,0-10.05-9.41L244.94,587ZM505.86,465.33ZM249.81,671a35.52,35.52,0,0,0,10.43,25.15l12.35,12.34a35.64,35.64,0,0,0,45.69,3.93l3.77-2.66a160.26,160.26,0,0,0,33.56,13.9l.78,4.53a35.62,35.62,0,0,0,35.08,29.49h17.47A35.6,35.6,0,0,0,444,728.22l.79-4.52a161.08,161.08,0,0,0,58.75-31.13,163.8,163.8,0,0,0,12.08-11.18L526,691.78l.87.8A161.17,161.17,0,0,0,585.6,723.7l.78,4.52a35.62,35.62,0,0,0,35.08,29.49h17.47A35.62,35.62,0,0,0,674,728.22l.79-4.53a160.4,160.4,0,0,0,33.55-13.9l3.77,2.66a35.63,35.63,0,0,0,45.69-3.93l12.35-12.34a35.53,35.53,0,0,0,3.93-45.63l-2.66-3.77a160.52,160.52,0,0,0,13.92-33.52l4.53-.78a35.59,35.59,0,0,0,29.52-35.05V560a35.57,35.57,0,0,0-29.52-35l-4.53-.78a160.3,160.3,0,0,0-13.92-33.52l2.66-3.77a35.53,35.53,0,0,0-3.93-45.64L757.81,428.9A35.64,35.64,0,0,0,712.12,425l-3.77,2.66a161,161,0,0,0-33.55-13.91L674,409.2a35.59,35.59,0,0,0-35.08-29.49H621.46a35.59,35.59,0,0,0-35.08,29.49l-.78,4.51a161,161,0,0,0-58.76,31.13h0q-5.85,4.89-11.22,10.3c-3-2.72-6-5.3-8.31-7.24s-3.92-3.2-4-3.25h0a161.06,161.06,0,0,0-58.52-30.94L444,409.2a35.59,35.59,0,0,0-35.08-29.49H391.47a35.59,35.59,0,0,0-35.08,29.49l-.78,4.52a160.82,160.82,0,0,0-33.56,13.91L318.28,425h0a35.63,35.63,0,0,0-45.69,3.93l-12.35,12.33a35.54,35.54,0,0,0-3.93,45.64l2.66,3.77a160.3,160.3,0,0,0-13.92,33.52l-4.52.78A35.56,35.56,0,0,0,211,560v17.44a35.58,35.58,0,0,0,29.53,35.05l4.52.78A160.52,160.52,0,0,0,259,646.78l-2.66,3.77a35.54,35.54,0,0,0-6.5,20.48Z" transform="translate(-58 -136.71)"/><polygon class="cls-1" points="501.62 370.08 501.62 370.08 501.63 370.07 501.62 370.08 501.62 370.08"/><path class="cls-1" d="M220.87,850a12.55,12.55,0,1,0,12.55-12.55A12.55,12.55,0,0,0,220.87,850Z" transform="translate(-58 -136.71)"/></svg>